# xmcd
#
# Track frame offsets: 
#        150
#        13243
#        23491
#        35870
#        46697
#        57269
#        70052
#        83571
#        97970
#        108964
#        121872
#        132679
#        144166
#        157763
#        169080
#        184837
#        197612
#        209428
#        222736
#        235799
#        249435
#        262022
#        273604
#        286650
#        296188
#
# Disc length: 4084 seconds
#
# Revision: 1
# Processed by: cddbd v1.5.2PL0 Copyright (c) Steve Scherf et al.
# Submitted via: ExactAudioCopy v1.1
#
DISCID=6c0ff219
DTITLE=Various Artist - The Complete Motown Singles Volume 6 [CD31
DTITLE=)
DYEAR=2006
DGENRE=R&B
TTITLE0=The Supremes - You Can't Hurry Love (mono)
TTITLE1=The Supremes - Put Yourself In My Place (mono)
TTITLE2=Marvin Gaye - Little Darling (I Need You) (mono)
TTITLE3=Marvin Gaye - Hey Diddle Diddle (mono)
TTITLE4=The Temptations - Beauty Is Only Skin Deep (mono)
TTITLE5=The Temptations - You're Not An Ordinary Girl (mono)
TTITLE6=The Four Tops - Reach Out, I'll Be There (mono)
TTITLE7=The Four Tops - Until You Love Someone (mono)
TTITLE8=The Velvelettes - These Things Will Keep Me Loving You (mono)
TTITLE9=Brenda Holloway - Hurt A Little Everyday (mono)
TTITLE10=Brenda Holloway - Where Were You (mono)
TTITLE11=The Elgins - Heaven Must Have Sent You (mono)
TTITLE12=The Elgins - Stay In My Lonely Arms (mono)
TTITLE13=Brenda Holloway - Play It Cool, Stay In School (mono)
TTITLE14=Barbara McNair - Everything Is Good About You (mono)
TTITLE15=Barbara McNair - What A Day (mono)
TTITLE16=Billy Eckstine - And There You Were (mono)
TTITLE17=Billy Eckstine - A Warmer World (mono)
TTITLE18=Martha and The Vandellas - I'm Ready For Love (mono)
TTITLE19=Martha and The Vandellas - He Doesn't Love Her Anymore (mono)
TTITLE20=The Supremes - You Keep Me Hangin' On (mono)
TTITLE21=The Supremes - Mother You, Smother You (mono)
TTITLE22=The Supremes - Remove This Doubt (mono)
TTITLE23=Marvin Gaye - Loraine Alterman Interviews Marvin Gaye (mono)
TTITLE24=Marvin Gaye - The Teen Beat Song (mono)
EXTD=
EXTT0=
EXTT1=
EXTT2=
EXTT3=
EXTT4=
EXTT5=
EXTT6=
EXTT7=
EXTT8=
EXTT9=
EXTT10=
EXTT11=
EXTT12=
EXTT13=
EXTT14=
EXTT15=
EXTT16=
EXTT17=
EXTT18=
EXTT19=
EXTT20=
EXTT21=
EXTT22=
EXTT23=
EXTT24=
PLAYORDER=
